<svg xmlns="http://www.w3.org/2000/svg" viewBox="0 0 290 195" width="290" height="195"><path d="M62 34 Q66 48 80 52 Q66 56 62 70 Q58 56 44 52 Q58 48 62 34 Z" fill="#C8F542" stroke="#1C1C1E" stroke-width="3"/><path d="M226 26 Q231 43 248 48 Q231 53 226 70 Q221 53 204 48 Q221 43 226 26 Z" fill="#C8F542" stroke="#1C1C1E" stroke-width="3"/><path d="M240 105 Q243 115 253 118 Q243 121 240 131 Q237 121 227 118 Q237 115 240 105 Z" fill="#C8F542" stroke="#1C1C1E" stroke-width="3"/><path d="M14 176 L276 176" fill="none" stroke="#1C1C1E" stroke-width="5" stroke-linecap="round" opacity="0.12"/><path d="M132 105 L126 158" fill="none" stroke="#1C1C1E" stroke-width="9" stroke-linecap="round" opacity="1"/><path d="M158 105 L164 158" fill="none" stroke="#1C1C1E" stroke-width="9" stroke-linecap="round" opacity="1"/><circle cx="126" cy="160" r="6.5" fill="#C8F542" stroke="#1C1C1E" stroke-width="3"/><circle cx="164" cy="160" r="6.5" fill="#C8F542" stroke="#1C1C1E" stroke-width="3"/><g transform="rotate(0 145 78)"><rect x="107" y="51" width="76" height="54" rx="27" fill="#FFFFFF" stroke="#1C1C1E" stroke-width="10"/><path d="M145 51 L145 33" fill="none" stroke="#1C1C1E" stroke-width="6" stroke-linecap="round" opacity="1"/><circle cx="145" cy="23" r="10" fill="#C8F542" stroke="#1C1C1E" stroke-width="4"/><circle cx="119" cy="84" r="4.5" fill="#C8F542"/><circle cx="171" cy="84" r="4.5" fill="#C8F542"/><circle cx="131" cy="74" r="5.5" fill="#1C1C1E"/><circle cx="159" cy="74" r="5.5" fill="#1C1C1E"/><path d="M134 87 Q145 96 156 87" fill="none" stroke="#1C1C1E" stroke-width="5" stroke-linecap="round" opacity="1"/></g><path d="M107 84 Q86 84 78 70" fill="none" stroke="#1C1C1E" stroke-width="9" stroke-linecap="round" opacity="1"/><path d="M183 84 Q204 84 212 70" fill="none" stroke="#1C1C1E" stroke-width="9" stroke-linecap="round" opacity="1"/><circle cx="72" cy="66" r="7" fill="#C8F542" stroke="#1C1C1E" stroke-width="3"/><circle cx="218" cy="66" r="7" fill="#C8F542" stroke="#1C1C1E" stroke-width="3"/><text x="18" y="152" text-anchor="start" font-family="Pretendard, 'Apple SD Gothic Neo', 'Noto Sans KR', 'Malgun Gothic', sans-serif" font-size="22" font-weight="500" fill="#1C1C1E" letter-spacing="-0.5">기타</text></svg>