<svg xmlns="http://www.w3.org/2000/svg" viewBox="0 0 290 195" width="290" height="195"><path d="M14 178 L276 178" fill="none" stroke="#C8F542" stroke-width="5" stroke-linecap="round" opacity="0.4"/><circle cx="100" cy="142" r="26" fill="none" stroke="#1C1C1E" stroke-width="5"/><circle cx="194" cy="142" r="26" fill="none" stroke="#1C1C1E" stroke-width="5"/><path d="M82 124 L118 160" fill="none" stroke="#1C1C1E" stroke-width="2" stroke-linecap="round" opacity="0.22"/><path d="M82 160 L118 124" fill="none" stroke="#1C1C1E" stroke-width="2" stroke-linecap="round" opacity="0.22"/><path d="M100 116 L100 168" fill="none" stroke="#1C1C1E" stroke-width="2" stroke-linecap="round" opacity="0.22"/><path d="M74 142 L126 142" fill="none" stroke="#1C1C1E" stroke-width="2" stroke-linecap="round" opacity="0.22"/><path d="M176 124 L212 160" fill="none" stroke="#1C1C1E" stroke-width="2" stroke-linecap="round" opacity="0.22"/><path d="M176 160 L212 124" fill="none" stroke="#1C1C1E" stroke-width="2" stroke-linecap="round" opacity="0.22"/><path d="M194 116 L194 168" fill="none" stroke="#1C1C1E" stroke-width="2" stroke-linecap="round" opacity="0.22"/><path d="M168 142 L220 142" fill="none" stroke="#1C1C1E" stroke-width="2" stroke-linecap="round" opacity="0.22"/><path d="M100 142 L152 142 L172 112 L140 112 Z" fill="none" stroke="#C8F542" stroke-width="7" stroke-linecap="round" opacity="1"/><path d="M100 142 L152 142 L172 112 L140 112 Z" fill="none" stroke="#1C1C1E" stroke-width="3" stroke-linecap="round" opacity="0.55"/><path d="M172 112 L188 100" fill="none" stroke="#1C1C1E" stroke-width="6" stroke-linecap="round" opacity="1"/><circle cx="148" cy="142" r="8" fill="#C8F542" stroke="#1C1C1E" stroke-width="3.5"/><path d="M133 99 Q126 120 144 134" fill="none" stroke="#1C1C1E" stroke-width="9" stroke-linecap="round" opacity="1"/><path d="M159 99 Q170 118 152 140" fill="none" stroke="#1C1C1E" stroke-width="9" stroke-linecap="round" opacity="1"/><g transform="rotate(-12 146 72)"><rect x="108" y="45" width="76" height="54" rx="27" fill="#FFFFFF" stroke="#1C1C1E" stroke-width="10"/><path d="M111 58 A 35 32 0 0 1 181 58 Z" fill="#C8F542" stroke="#1C1C1E" stroke-width="4.5" stroke-linejoin="round"/><path d="M134 30 L140 56" fill="none" stroke="#1C1C1E" stroke-width="3.5" stroke-linecap="round" opacity="0.5"/><path d="M158 30 L152 56" fill="none" stroke="#1C1C1E" stroke-width="3.5" stroke-linecap="round" opacity="0.5"/><path d="M146 45 L146 27" fill="none" stroke="#1C1C1E" stroke-width="6" stroke-linecap="round" opacity="1"/><circle cx="146" cy="17" r="10" fill="#C8F542" stroke="#1C1C1E" stroke-width="4"/><circle cx="120" cy="78" r="4.5" fill="#C8F542"/><circle cx="172" cy="78" r="4.5" fill="#C8F542"/><circle cx="132" cy="68" r="5.5" fill="#1C1C1E"/><circle cx="160" cy="68" r="5.5" fill="#1C1C1E"/><path d="M135 81 Q146 90 157 81" fill="none" stroke="#1C1C1E" stroke-width="5" stroke-linecap="round" opacity="1"/></g><path d="M182 76 Q198 88 188 98" fill="none" stroke="#1C1C1E" stroke-width="9" stroke-linecap="round" opacity="1"/><text x="22" y="40" text-anchor="start" font-family="Pretendard, 'Apple SD Gothic Neo', 'Noto Sans KR', 'Malgun Gothic', sans-serif" font-size="22" font-weight="500" fill="#1C1C1E" letter-spacing="-0.5">사이클</text></svg>