<svg xmlns="http://www.w3.org/2000/svg" viewBox="0 0 290 195" width="290" height="195"><path d="M14 48 L274 48" fill="none" stroke="#1C1C1E" stroke-width="5" stroke-linecap="round" opacity="0.3"/><path d="M14 92 L274 92" fill="none" stroke="#1C1C1E" stroke-width="5" stroke-linecap="round" opacity="0.3"/><path d="M14 48 L14 92" fill="none" stroke="#1C1C1E" stroke-width="5" stroke-linecap="round" opacity="0.3"/><path d="M274 48 L274 92" fill="none" stroke="#1C1C1E" stroke-width="5" stroke-linecap="round" opacity="0.3"/><path d="M34 48 L34 92" fill="none" stroke="#1C1C1E" stroke-width="2" stroke-linecap="round" opacity="0.16"/><path d="M54 48 L54 92" fill="none" stroke="#1C1C1E" stroke-width="2" stroke-linecap="round" opacity="0.16"/><path d="M74 48 L74 92" fill="none" stroke="#1C1C1E" stroke-width="2" stroke-linecap="round" opacity="0.16"/><path d="M94 48 L94 92" fill="none" stroke="#1C1C1E" stroke-width="2" stroke-linecap="round" opacity="0.16"/><path d="M114 48 L114 92" fill="none" stroke="#1C1C1E" stroke-width="2" stroke-linecap="round" opacity="0.16"/><path d="M134 48 L134 92" fill="none" stroke="#1C1C1E" stroke-width="2" stroke-linecap="round" opacity="0.16"/><path d="M154 48 L154 92" fill="none" stroke="#1C1C1E" stroke-width="2" stroke-linecap="round" opacity="0.16"/><path d="M174 48 L174 92" fill="none" stroke="#1C1C1E" stroke-width="2" stroke-linecap="round" opacity="0.16"/><path d="M194 48 L194 92" fill="none" stroke="#1C1C1E" stroke-width="2" stroke-linecap="round" opacity="0.16"/><path d="M214 48 L214 92" fill="none" stroke="#1C1C1E" stroke-width="2" stroke-linecap="round" opacity="0.16"/><path d="M234 48 L234 92" fill="none" stroke="#1C1C1E" stroke-width="2" stroke-linecap="round" opacity="0.16"/><path d="M254 48 L254 92" fill="none" stroke="#1C1C1E" stroke-width="2" stroke-linecap="round" opacity="0.16"/><path d="M14 68 L274 68" fill="none" stroke="#1C1C1E" stroke-width="2" stroke-linecap="round" opacity="0.16"/><path d="M14 88 L274 88" fill="none" stroke="#1C1C1E" stroke-width="2" stroke-linecap="round" opacity="0.16"/><path d="M14 176 L276 176" fill="none" stroke="#1C1C1E" stroke-width="5" stroke-linecap="round" opacity="0.12"/><path d="M106 139 Q92 158 98 172" fill="none" stroke="#1C1C1E" stroke-width="9" stroke-linecap="round" opacity="1"/><path d="M134 139 Q152 158 144 172" fill="none" stroke="#1C1C1E" stroke-width="9" stroke-linecap="round" opacity="1"/><circle cx="98" cy="174" r="6.5" fill="#C8F542" stroke="#1C1C1E" stroke-width="3"/><circle cx="144" cy="174" r="6.5" fill="#C8F542" stroke="#1C1C1E" stroke-width="3"/><g transform="rotate(0 120 112)"><rect x="82" y="85" width="76" height="54" rx="27" fill="#FFFFFF" stroke="#1C1C1E" stroke-width="10"/><path d="M120 85 L120 67" fill="none" stroke="#1C1C1E" stroke-width="6" stroke-linecap="round" opacity="1"/><circle cx="120" cy="57" r="10" fill="#C8F542" stroke="#1C1C1E" stroke-width="4"/><circle cx="94" cy="118" r="4.5" fill="#C8F542"/><circle cx="146" cy="118" r="4.5" fill="#C8F542"/><circle cx="106" cy="108" r="5.5" fill="#1C1C1E"/><circle cx="134" cy="108" r="5.5" fill="#1C1C1E"/><path d="M109 121 Q120 130 131 121" fill="none" stroke="#1C1C1E" stroke-width="5" stroke-linecap="round" opacity="1"/></g><path d="M82 108 Q62 92 68 74" fill="none" stroke="#1C1C1E" stroke-width="9" stroke-linecap="round" opacity="1"/><path d="M158 108 Q188 78 196 54" fill="none" stroke="#1C1C1E" stroke-width="9" stroke-linecap="round" opacity="1"/><circle cx="204" cy="34" r="17" fill="#C8F542" stroke="#1C1C1E" stroke-width="4"/><path d="M190 25 Q204 34 190 43" fill="none" stroke="#1C1C1E" stroke-width="3" stroke-linecap="round" opacity="0.55"/><path d="M218 25 Q204 34 218 43" fill="none" stroke="#1C1C1E" stroke-width="3" stroke-linecap="round" opacity="0.55"/><path d="M204 17 Q212 34 204 51" fill="none" stroke="#1C1C1E" stroke-width="3" stroke-linecap="round" opacity="0.55"/><text x="272" y="148" text-anchor="end" font-family="Pretendard, 'Apple SD Gothic Neo', 'Noto Sans KR', 'Malgun Gothic', sans-serif" font-size="22" font-weight="500" fill="#1C1C1E" letter-spacing="-0.5">배구</text></svg>