<svg xmlns="http://www.w3.org/2000/svg" viewBox="0 0 100 100">
  <circle cx="50" cy="50" r="48" fill="#F5EEF8"/>
  <circle cx="50" cy="50" r="46" fill="none" stroke="#1C1C1E" stroke-width="2" stroke-dasharray="3 7"/>
  <!-- 네트 -->
  <line x1="10" y1="62" x2="90" y2="62" stroke="#1C1C1E" stroke-width="2.5"/>
  <line x1="50" y1="55" x2="50" y2="90" stroke="#1C1C1E" stroke-width="2"/>
  <!-- 배구공 -->
  <circle cx="50" cy="28" r="14" fill="white" stroke="#1C1C1E" stroke-width="2.5"/>
  <line x1="36" y1="28" x2="64" y2="28" stroke="#1C1C1E" stroke-width="1.5"/>
  <path d="M38 16 Q50 20 62 16" fill="none" stroke="#1C1C1E" stroke-width="1.5"/>
  <path d="M38 40 Q50 36 62 40" fill="none" stroke="#1C1C1E" stroke-width="1.5"/>
  <!-- 왼쪽 선수 -->
  <circle cx="24" cy="52" r="7" fill="#C8F542" stroke="#1C1C1E" stroke-width="2"/>
  <line x1="24" y1="59" x2="22" y2="74" stroke="#1C1C1E" stroke-width="3" stroke-linecap="round"/>
  <line x1="23" y1="64" x2="12" y2="58" stroke="#1C1C1E" stroke-width="3" stroke-linecap="round"/>
  <line x1="23" y1="65" x2="34" y2="60" stroke="#1C1C1E" stroke-width="3" stroke-linecap="round"/>
  <line x1="22" y1="74" x2="14" y2="85" stroke="#1C1C1E" stroke-width="3" stroke-linecap="round"/>
  <line x1="22" y1="74" x2="30" y2="85" stroke="#1C1C1E" stroke-width="3" stroke-linecap="round"/>
  <!-- 오른쪽 선수 -->
  <circle cx="76" cy="52" r="7" fill="#C8F542" stroke="#1C1C1E" stroke-width="2"/>
  <line x1="76" y1="59" x2="78" y2="74" stroke="#1C1C1E" stroke-width="3" stroke-linecap="round"/>
  <line x1="77" y1="64" x2="66" y2="60" stroke="#1C1C1E" stroke-width="3" stroke-linecap="round"/>
  <line x1="77" y1="65" x2="88" y2="58" stroke="#1C1C1E" stroke-width="3" stroke-linecap="round"/>
  <line x1="78" y1="74" x2="70" y2="85" stroke="#1C1C1E" stroke-width="3" stroke-linecap="round"/>
  <line x1="78" y1="74" x2="86" y2="85" stroke="#1C1C1E" stroke-width="3" stroke-linecap="round"/>
</svg>
